<svg xmlns="http://www.w3.org/2000/svg" xmlns:xlink="http://www.w3.org/1999/xlink" viewBox="0 0 1578.15 1608.77"><defs><style>.cls-1{fill:url(#linear-gradient);}.cls-2{fill:url(#linear-gradient-2);}.cls-3{fill:url(#linear-gradient-3);}.cls-4{fill:url(#linear-gradient-4);}.cls-5{fill:url(#linear-gradient-5);}.cls-6{fill:url(#linear-gradient-6);}.cls-7{fill:none;clip-rule:evenodd;}.cls-8{clip-path:url(#clip-path);}.cls-9{fill:url(#New_Gradient_Swatch_1);}.cls-10{mask:url(#mask);}.cls-11,.cls-23{fill:#102770;}.cls-11,.cls-17,.cls-19{fill-rule:evenodd;}.cls-12{clip-path:url(#clip-path-2);}.cls-13{fill:url(#linear-gradient-7);}.cls-14{clip-path:url(#clip-path-3);}.cls-15{fill:url(#linear-gradient-8);}.cls-16{mask:url(#mask-2);}.cls-17{fill:#fde3a7;}.cls-18{mask:url(#mask-3);}.cls-19{fill:#9a0038;}.cls-20{mask:url(#mask-4);}.cls-21{mask:url(#mask-5);}.cls-22{mask:url(#mask-6);}.cls-24{font-size:159.56px;fill:#1a1a1a;font-family:Montserrat-Regular, Montserrat;}.cls-25{letter-spacing:-0.05em;}.cls-26{letter-spacing:0em;}</style><linearGradient id="linear-gradient" x1="-526.79" y1="820.23" x2="-255.43" y2="1761.22" gradientTransform="translate(1561.48 -94.3)" gradientUnits="userSpaceOnUse"><stop offset="0" stop-color="#fff"/><stop offset="1"/></linearGradient><linearGradient id="linear-gradient-2" x1="-718.75" y1="-66.93" x2="-450.88" y2="888.09" gradientTransform="translate(1537.53 -205.55)" xlink:href="#linear-gradient"/><linearGradient id="linear-gradient-3" x1="-681.6" y1="572.52" x2="-734.47" y2="1383.1" gradientTransform="translate(1501.98 -146.49)" xlink:href="#linear-gradient"/><linearGradient id="linear-gradient-4" x1="-701.66" y1="282" x2="-701.66" y2="1092.54" gradientTransform="translate(1499.75 -145.42)" xlink:href="#linear-gradient"/><linearGradient id="linear-gradient-5" x1="-563" y1="-34.44" x2="-942.76" y2="1000.54" gradientTransform="translate(1483.06 -170.69)" xlink:href="#linear-gradient"/><linearGradient id="linear-gradient-6" x1="-775.78" y1="959.99" x2="-1212.84" y2="1922.07" gradientTransform="translate(1472.6 -93.37)" xlink:href="#linear-gradient"/><clipPath id="clip-path"><path class="cls-7" d="M1255,765.25l159.29,312.6q79.44,155.13,158.87,310.29c-462.83,0-389.64,2.79-638.16-483.55l320-139.34"/></clipPath><linearGradient id="New_Gradient_Swatch_1" x1="1191.53" y1="823.02" x2="1338.12" y2="1421.28" gradientUnits="userSpaceOnUse"><stop offset="0" stop-color="#102770"/><stop offset="1" stop-color="#d528db"/></linearGradient><mask id="mask" x="934.95" y="839.31" width="422.19" height="545.47" maskUnits="userSpaceOnUse"><rect class="cls-1" x="934.95" y="839.31" width="422.19" height="545.47"/></mask><clipPath id="clip-path-2"><path class="cls-7" d="M252.27,1201.87,0,1311.72q107.82-19.17,215.65-38.31-29.37,57.35-58.75,114.73c389,0,366.43,47.28,517-245.93l81.25-159.32-502.86,219"/></clipPath><linearGradient id="linear-gradient-7" x1="350.12" y1="973.08" x2="408.61" y2="1476.21" xlink:href="#New_Gradient_Swatch_1"/><clipPath id="clip-path-3"><path class="cls-7" d="M865,767.45q-39.53,77.47-79,155l-518.12,249q23.91-46.74,47.85-93.47L865,0l331,649.51c151.91-30.44,260.41-52.14,260.41-52.14l-230.26,111.3L912.37,860.33Q888.69,813.91,865,767.45"/></clipPath><linearGradient id="linear-gradient-8" x1="1012.65" y1="200.68" x2="677.83" y2="1057.09" gradientUnits="userSpaceOnUse"><stop offset="0" stop-color="#ffcf4b"/><stop offset="1" stop-color="#de33d8"/></linearGradient><mask id="mask-2" x="776.61" y="0" width="419.37" height="649.51" maskUnits="userSpaceOnUse"><rect class="cls-2" x="776.61" width="419.37" height="649.51"/></mask><mask id="mask-3" x="541.65" y="405.28" width="518.76" height="634.55" maskUnits="userSpaceOnUse"><rect class="cls-3" x="541.65" y="405.28" width="518.76" height="634.55"/></mask><mask id="mask-4" x="526.92" y="373.55" width="542.33" height="673.37" maskUnits="userSpaceOnUse"><rect class="cls-4" x="526.92" y="373.55" width="542.33" height="673.37"/></mask><mask id="mask-5" x="416.64" y="0" width="533.45" height="879.9" maskUnits="userSpaceOnUse"><rect class="cls-5" x="416.64" width="533.45" height="879.9"/></mask><mask id="mask-6" x="347.49" y="982.89" width="407.64" height="408.06" maskUnits="userSpaceOnUse"><rect class="cls-6" x="347.49" y="982.89" width="407.64" height="408.06"/></mask></defs><g id="Layer_2" data-name="Layer 2"><g id="Layer_1-2" data-name="Layer 1"><g class="cls-8"><rect class="cls-9" x="934.95" y="765.25" width="638.16" height="625.68"/></g><g class="cls-10"><path class="cls-11" d="M1357.14,1384.78C1126.66,1370.6,1135,1296.05,935,904.59l149.9-65.28Z"/></g><g class="cls-12"><rect class="cls-13" y="982.89" width="755.13" height="452.53"/></g><g class="cls-14"><rect class="cls-15" x="267.86" width="1188.52" height="1171.43"/></g><g class="cls-16"><path class="cls-17" d="M776.61,173.48,865,0l331,649.51Z"/></g><g class="cls-18"><path class="cls-19" d="M865,767.45q-39.53,77.47-79,155L541.65,1039.83,865,405.28l195.41,383.49L912.37,860.33Q888.69,813.91,865,767.45"/></g><g class="cls-20"><polygon class="cls-17" points="542.98 1037.24 865.01 405.28 1059.62 787.2 1069.24 784.51 865.01 373.56 526.92 1046.92 542.98 1037.24"/></g><g class="cls-21"><path class="cls-17" d="M416.64,879.9,950.09,167,865,0Z"/></g><g class="cls-22"><path class="cls-23" d="M505.15,1091.75l-157.66,299c196.34,2.59,206.34-14.71,326.39-248.52l81.25-159.32Z"/></g><text class="cls-24" transform="translate(164.44 1568.87)">ALPHA CRE<tspan class="cls-25" x="941.89" y="0">A</tspan><tspan class="cls-26" x="1051.5" y="0">TIVE</tspan></text></g></g></svg>